Coordinates
version=1
nRows=17
nColumns=36
inDegrees=yes

Units are S.I. units (second, meters, Newtons, ...)
If the header above contains a line with 'inDegrees', this indicates whether rotational values are in degrees (yes) or radians (no).

endheader
time	pelvis_tilt	pelvis_list	pelvis_rotation	pelvis_tx	pelvis_ty	pelvis_tz	hip_flexion_r	hip_adduction_r	hip_rotation_r	knee_angle_r	knee_angle_r_beta	ankle_angle_r	subtalar_angle_r	mtp_angle_r	hip_flexion_l	hip_adduction_l	hip_rotation_l	knee_angle_l	knee_angle_l_beta	ankle_angle_l	subtalar_angle_l	mtp_angle_l	lumbar_extension	lumbar_bending	lumbar_rotation	arm_flex_r	arm_add_r	arm_rot_r	elbow_flex_r	pro_sup_r	arm_flex_l	arm_add_l	arm_rot_l	elbow_flex_l	pro_sup_l
      1.74000000	    -14.41428375	      1.53746079	      4.99537253	     -0.30408220	      0.60047055	     -0.59830609	     80.79936283	     -4.06042740	      7.36650328	    105.22793124	      1.83657387	     35.99875244	     -8.72270220	     -7.37222341	     78.42911354	     -7.20966495	     -1.60426272	    105.03342166	      1.83317903	     36.58147753	      6.91844083	     -7.37222341	    -37.11357429	     -3.71825919	    -14.33695791	    108.23943032	    -23.47948701	     23.07804471	    128.31237392	    107.14453488	    125.44599689	    -16.14580503	     39.56717382	    112.90531131	    105.07356179
      1.75000000	    -14.03565785	      1.75226201	      4.82183437	     -0.29969097	      0.61460538	     -0.59760056	     78.55635867	     -4.02890869	      7.05145428	    103.06584244	      1.79883830	     34.95027999	     -9.62744191	     -7.37540351	     76.19571106	     -7.36643365	     -2.19236150	    102.88079077	      1.79560854	     35.30115563	      6.53205837	     -7.37540351	    -36.32481690	     -4.09887168	    -14.35569407	    107.18186546	    -24.89844050	     23.64555364	    129.21346098	    106.65920411	    125.62209121	    -18.01419362	     41.91990095	    113.74188850	    105.07995778
      1.76000000	    -13.62840569	      1.90630814	      4.51267440	     -0.29493203	      0.62929624	     -0.59674495	     76.22306729	     -3.90274053	      6.68599161	    100.74699466	      1.75836677	     34.14522276	     -9.95752551	     -7.37735070	     73.86740425	     -7.63630804	     -2.71391241	    100.64466928	      1.75658085	     34.09635369	      6.50126360	     -7.37735070	    -35.42176344	     -4.45101198	    -13.99982544	    105.98646573	    -26.44604150	     24.29080901	    130.39835996	    106.34110635	    125.41549174	    -19.95424165	     43.98144867	    115.04443064	    105.08587602
      1.77000000	    -13.03878451	      2.02904444	      4.26378613	     -0.28993872	      0.64462564	     -0.59602806	     73.64383990	     -3.84123342	      6.28965515	     98.33699458	      1.71630433	     32.72054774	    -10.97491363	     -7.38155841	     71.32616749	     -7.88934890	     -3.36472596	     98.28157538	      1.71533708	     32.51386482	      5.89994735	     -7.38155841	    -34.63030033	     -4.72321594	    -13.85858428	    104.46343067	    -27.97253523	     25.11707290	    131.55915813	    105.51984110	    125.78839079	    -22.29813059	     46.91464205	    116.33728101	    104.70573461
      1.78000000	    -12.58554589	      2.05929845	      3.99663601	     -0.28446825	      0.66016702	     -0.59537557	     71.13075719	     -3.76957854	      5.88647732	     95.82401563	      1.67244458	     31.90984425	    -10.81172305	     -7.38262835	     68.87581628	     -8.19835749	     -3.91944830	     95.86718895	      1.67319809	     31.37509455	      6.09281940	     -7.38262835	    -33.37284762	     -4.90230481	    -13.33592724	    102.50747546	    -29.83816600	     26.29356520	    132.97449290	    105.42882787	    125.08534183	    -24.32909180	     48.84697864	    117.84290027	    104.75650875
      1.79000000	    -11.85096928	      2.24782316	      3.74832403	     -0.27900964	      0.67671420	     -0.59463558	     68.28429790	     -3.76742175	      5.61760626	     93.09715594	      1.62485190	     29.83409049	    -12.20584286	     -7.39010606	     66.04229384	     -8.40425904	     -4.66689346	     93.22992808	      1.62716921	     29.20126626	      5.44883325	     -7.39010606	    -32.63941305	     -5.23407235	    -13.34868545	    100.82810081	    -31.63908779	     28.06473793	    134.66346927	    104.10099108	    126.07524097	    -26.95456611	     52.53905119	    119.72954212	    103.49109709
      1.80000000	    -11.08009459	      2.36895229	      3.61931729	     -0.27299407	      0.69380128	     -0.59425177	     65.28521794	     -3.96234432	      5.24636260	     90.29237293	      1.57589920	     28.61659513	    -12.10599959	     -7.39276380	     63.07244750	     -8.49366755	     -5.30460545	     90.40698947	      1.57789963	     27.60037095	      5.60488909	     -7.39276380	    -31.68296554	     -5.45180040	    -13.00090796	     98.75740002	    -34.04727155	     30.28301527	    136.61095270	    103.88905260	    126.09655601	    -29.02257323	     55.40403344	    121.55262849	    103.20243510
      1.81000000	    -10.34758199	      2.47513725	      3.49525116	     -0.26669664	      0.71136239	     -0.59377816	     62.27963584	     -4.20746591	      4.78034270	     87.28772151	      1.52345814	     27.07535208	    -12.13270845	     -7.39493911	     60.06492778	     -8.51966204	     -5.88539061	     87.40378038	      1.52548375	     25.77463482	      5.67440475	     -7.39493911	    -30.58375523	     -5.68677669	    -12.65144968	     96.48575522	    -36.59145386	     32.91781297	    138.69793884	    103.79597584	    126.24694434	    -31.14986042	     58.58237179	    123.62147107	    102.93331674
      1.82000000	     -9.65302162	      2.46323934	      3.47489158	     -0.26013139	      0.72930989	     -0.59317467	     59.22934580	     -4.39986957	      4.20430563	     84.11168190	      1.46802579	     24.84245134	    -12.92539947	     -7.42931357	     57.08659560	     -8.58776421	     -6.42879909	     84.21253720	      1.46978605	     23.74516162	      5.43314980	     -7.42931357	    -29.28887648	     -5.73375794	    -12.61820473	     94.08897271	    -38.91478500	     36.37707422	    140.66814163	    100.73851648	    126.83215077	    -33.78578244	     63.15511615	    126.99479471	     92.97604433
      1.83000000	     -8.95830823	      2.47871061	      3.49347112	     -0.25323803	      0.74788026	     -0.59277277	     56.07637375	     -4.72884147	      3.58017443	     80.74564360	      1.40927734	     23.04111926	    -12.53541102	     -7.43069414	     53.98940887	     -8.61377573	     -7.04433019	     80.76300321	      1.40958032	     21.51790026	      5.84960904	     -7.43069414	    -27.93055135	     -5.82400451	    -12.21395834	     91.72365744	    -42.09710916	     40.00732585	    142.63528988	    101.07370896	    127.21626319	    -35.77125186	     67.19807163	    129.03101511	     93.15439781
      1.84000000	     -8.22595686	      2.59591594	      3.67991989	     -0.24611910	      0.76722753	     -0.59290508	     52.75417966	     -5.35107425	      2.74037758	     77.08242779	      1.34534216	     20.55354033	    -13.05012480	     -7.45488169	     50.69599715	     -8.27960925	     -7.63308021	     76.94233540	      1.34289709	     19.20123591	      5.43170281	     -7.45488169	    -26.62727836	     -5.88625138	    -12.55963547	     89.32825971	    -44.63518032	     44.07068732	    143.93909585	    101.96273267	    128.77473457	    -38.32959854	     73.01735335	    132.30306224	     86.94806561
      1.85000000	     -7.52603193	      2.74957311	      3.94741156	     -0.23871425	      0.78721833	     -0.59333052	     49.30833152	     -6.11378005	      1.74710685	     73.13749016	      1.27649001	     18.40810259	    -12.63035468	     -7.45613524	     47.30266603	     -7.82658200	     -8.23634941	     72.79742219	      1.27055470	     16.64683915	      5.47439220	     -7.45613524	    -25.26245864	     -6.07763262	    -12.36383791	     86.55431076	    -48.35267411	     47.98807289	    145.53245620	    102.38755844	    129.73868728	    -39.77569142	     78.19068592	    134.39657078	     87.15480670
      1.86000000	     -6.94064317	      2.93961477	      4.31627432	     -0.23129308	      0.80758340	     -0.59375120	     45.86486778	     -6.91419984	      0.64900306	     68.89825967	      1.20250148	     15.54265327	    -12.67389923	     -7.45943133	     43.92572875	     -7.25522161	     -8.85837488	     68.27290804	      1.19158704	     13.56882089	      5.18020964	     -7.45943133	    -23.71582114	     -6.17357733	    -12.83232674	     83.79341061	    -50.98883604	     52.08355272	    146.06641705	    103.48497571	    131.52383611	    -41.87840362	     84.49572942	    137.10416268	     86.67556553
      1.87000000	     -6.43160507	      3.17569425	      4.64463868	     -0.22361524	      0.82843217	     -0.59423442	     42.35654245	     -7.76560025	     -0.58697166	     64.32569626	      1.12269519	     12.90477378	    -11.78930594	     -7.46060330	     40.41497452	     -6.61741981	     -9.52748484	     63.32969370	      1.10531167	     10.46983900	      5.44558918	     -7.46060330	    -21.98478741	     -6.41084240	    -12.47440837	     80.28976281	    -54.73160792	     55.64679013	    146.67208921	    104.04887237	    131.93550492	    -42.92183372	     89.71515746	    139.05704786	     86.63148507
      1.88000000	     -6.00930287	      3.48876870	      4.97921242	     -0.21571536	      0.84990179	     -0.59489431	     38.72595047	     -8.65274998	     -1.93739398	     59.27524508	      1.03454819	      9.82019252	    -10.81590207	     -7.46162870	     36.70979544	     -5.78153903	    -10.20929432	     57.71870744	      1.00738148	      6.94888243	      5.69331801	     -7.46162870	    -20.14567024	     -6.71016450	    -12.10499058	     76.02278345	    -58.28031653	     58.61222062	    146.67778869	    104.43289132	    131.90995707	    -43.89630690	     94.78388127	    140.96039717	     86.56804527
      1.89000000	     -5.68857175	      3.85946571	      5.35739042	     -0.20769172	      0.87208242	     -0.59577462	     34.86848834	     -9.46955927	     -3.31478700	     53.51963375	      0.93409382	      5.89922546	    -10.31211526	     -7.46442751	     32.84000587	     -4.66868477	    -10.68485233	     51.39514613	      0.89701452	      2.59528253	      5.47175056	     -7.46442751	    -18.28758745	     -7.13901562	    -11.32643733	     69.34070436	    -62.26693689	     59.13147521	    146.21154444	    104.60769846	    131.20862633	    -44.42369687	     99.62568557	    142.48983890	     85.67742597
      1.90000000	     -5.53485564	      4.05230606	      5.74400950	     -0.19948218	      0.89478882	     -0.59705748	     30.76345240	     -9.90947859	     -4.61697999	     46.95260465	      0.81947754	      2.55430720	     -8.33002160	     -7.46484489	     28.93770005	     -3.60969674	    -10.81048900	     44.56925537	      0.77788025	     -1.03437609	      6.78475328	     -7.46484489	    -16.03401228	     -7.05675584	    -10.68243386	     64.04220725	    -65.43345136	     61.95116154	    144.54040578	    104.50087611	    128.49824479	    -46.12075722	    103.19781128	    144.06355156	     85.84337956
